<svg data-v-fde0c5aa="" xmlns="http://www.w3.org/2000/svg" viewBox="0 0 300 300" class="font"><!----><defs data-v-fde0c5aa=""><!----></defs><rect data-v-fde0c5aa="" fill="transparent" x="0" y="0" width="300px" height="300px" class="logo-background-square"></rect><defs data-v-fde0c5aa=""><linearGradient data-v-fde0c5aa="" gradientTransform="rotate(25)" id="cc92df5a-e865-4d2f-ad4f-078e98add436" x1="0%" y1="0%" x2="100%" y2="0%"><stop data-v-fde0c5aa="" offset="0%" stop-color="#0076DD" stop-opacity="1"></stop><stop data-v-fde0c5aa="" offset="100%" stop-color="#00CDE9" stop-opacity="1"></stop></linearGradient></defs><g data-v-fde0c5aa="" id="99b15d2d-c9fe-47ad-b4ff-831016bafeef" fill="url(#cc92df5a-e865-4d2f-ad4f-078e98add436)" transform="matrix(6.053344714031616,0,0,6.053344714031616,43.4443531769215,86.23657560078772)"><path d="M1.92 9.38L1.92 9.38Q2.02 10.61 2.16 11.82Q2.30 13.02 2.45 13.99L2.45 13.99Q2.49 14.22 2.53 14.38Q2.58 14.53 2.63 14.63Q2.69 14.73 2.76 14.79Q2.83 14.85 2.93 14.91L2.93 14.91Q3.23 15.06 3.57 15.16L3.57 15.16Q3.82 15.23 3.89 15.15Q3.95 15.06 4.05 14.77L4.05 14.77Q4.19 14.29 4.42 13.60Q4.65 12.91 4.92 12.14Q5.19 11.38 5.47 10.61Q5.75 9.83 5.99 9.20L5.99 9.20Q5.87 9.93 5.75 10.72Q5.64 11.52 5.55 12.26Q5.46 13.01 5.40 13.64Q5.33 14.27 5.31 14.67L5.31 14.67Q5.26 15.02 5.33 15.23Q5.40 15.44 5.63 15.60L5.63 15.60Q5.80 15.74 6.02 15.83Q6.24 15.93 6.47 16.00L6.47 16.00Q6.71 16.09 6.79 15.97Q6.87 15.86 6.93 15.61L6.93 15.61Q6.99 15.12 7.08 14.42Q7.17 13.72 7.29 12.92Q7.41 12.11 7.53 11.23Q7.66 10.36 7.79 9.53Q7.92 8.71 8.04 7.97Q8.16 7.24 8.26 6.69L8.26 6.69Q8.33 6.33 8.26 6.13Q8.19 5.92 7.94 5.77L7.94 5.77Q7.57 5.54 7.19 5.38Q6.80 5.22 6.47 5.11L6.47 5.11Q6.19 5.00 6.01 5.02Q5.82 5.04 5.68 5.21Q5.54 5.38 5.41 5.70Q5.28 6.02 5.10 6.52L5.10 6.52Q4.91 6.97 4.71 7.50Q4.51 8.02 4.32 8.55Q4.13 9.09 3.95 9.60Q3.77 10.12 3.63 10.56L3.63 10.56Q3.50 9.34 3.42 8.63Q3.35 7.92 3.30 7.55Q3.26 7.17 3.25 7.03Q3.25 6.89 3.25 6.79L3.25 6.79Q3.22 6.58 3.19 6.41Q3.16 6.24 3.10 6.10Q3.04 5.96 2.93 5.85Q2.81 5.74 2.62 5.64L2.62 5.64Q2.31 5.49 2.01 5.38Q1.71 5.26 1.27 5.18L1.27 5.18Q0.99 5.12 0.85 5.22Q0.71 5.32 0.63 5.68L0.63 5.68Q0.53 6.20 0.41 6.93Q0.29 7.66 0.18 8.48Q0.06 9.31-0.07 10.19Q-0.20 11.06-0.29 11.89Q-0.39 12.71-0.46 13.44Q-0.53 14.17-0.56 14.69L-0.56 14.69Q-0.59 15.05-0.52 15.25Q-0.45 15.44-0.22 15.61L-0.22 15.61Q-0.04 15.75 0.18 15.86Q0.39 15.96 0.60 16.03L0.60 16.03Q0.83 16.10 0.91 16.02Q0.99 15.95 1.04 15.69L1.04 15.69Q1.09 15.11 1.18 14.36Q1.27 13.61 1.39 12.78Q1.51 11.96 1.65 11.09Q1.78 10.22 1.92 9.38ZM12.47 13.17L12.47 13.17Q12.50 13.72 12.54 14.20Q12.59 14.67 12.63 15.08L12.63 15.08Q12.67 15.47 12.76 15.62Q12.85 15.78 13.08 15.88L13.08 15.88Q13.30 15.99 13.51 16.01Q13.72 16.03 13.96 16.03L13.96 16.03Q14.20 16.03 14.27 15.93Q14.34 15.83 14.32 15.58L14.32 15.58Q14.27 14.41 14.22 13.11Q14.17 11.82 14.13 10.57Q14.10 9.32 14.09 8.21Q14.08 7.10 14.10 6.30L14.10 6.30Q14.11 5.98 14.04 5.78Q13.96 5.57 13.69 5.46L13.69 5.46Q13.33 5.32 12.92 5.18Q12.52 5.04 11.86 5.00L11.86 5.00Q11.48 4.96 11.28 5.14Q11.09 5.32 10.96 5.61L10.96 5.61Q10.61 6.45 10.19 7.60Q9.77 8.74 9.37 9.95Q8.96 11.16 8.59 12.33Q8.22 13.50 7.97 14.42L7.97 14.42Q7.88 14.83 7.90 14.99Q7.91 15.16 8.01 15.30Q8.11 15.44 8.25 15.55Q8.39 15.67 8.53 15.76Q8.68 15.85 8.79 15.92L8.79 15.92Q9.00 16.03 9.11 15.99Q9.21 15.95 9.30 15.71L9.30 15.71Q9.44 15.26 9.58 14.79Q9.73 14.32 9.93 13.79L9.93 13.79Q10.44 13.59 11.12 13.45Q11.80 13.31 12.47 13.17ZM10.75 11.35L10.75 11.35Q11.16 10.18 11.56 9.11Q11.96 8.05 12.28 7.21L12.28 7.21Q12.28 8.13 12.31 9.11Q12.33 10.09 12.36 11.10L12.36 11.10Q11.55 11.19 10.75 11.35ZM21 6.90L21 6.90Q21.25 6.87 21.29 6.78Q21.34 6.69 21.28 6.43L21.28 6.43Q21.21 6.15 21.09 5.85Q20.97 5.56 20.80 5.31L20.80 5.31Q20.72 5.17 20.60 5.10Q20.48 5.04 20.24 5.04L20.24 5.04Q19.77 5.07 19.16 5.12Q18.55 5.18 17.92 5.26Q17.29 5.35 16.68 5.46Q16.07 5.57 15.60 5.70L15.60 5.70Q15.44 5.75 15.39 5.84Q15.33 5.92 15.41 6.17L15.41 6.17Q15.50 6.41 15.63 6.78Q15.76 7.14 15.93 7.38L15.93 7.38Q16.09 7.62 16.22 7.67Q16.35 7.71 16.56 7.64L16.56 7.64Q16.72 7.59 16.95 7.55Q17.18 7.50 17.42 7.45L17.42 7.45Q17.28 8.25 17.13 9.23Q16.98 10.21 16.86 11.19Q16.73 12.17 16.63 13.08Q16.53 13.99 16.49 14.63L16.49 14.63Q16.41 15.16 16.63 15.41Q16.86 15.67 17.25 15.83L17.25 15.83Q17.44 15.92 17.61 15.99Q17.77 16.06 17.89 16.07Q18.00 16.09 18.07 16.02Q18.14 15.95 18.16 15.75L18.16 15.75Q18.28 14.76 18.45 13.65Q18.61 12.54 18.79 11.42Q18.97 10.29 19.15 9.19Q19.33 8.09 19.50 7.10L19.50 7.10Q19.91 7.04 20.29 6.99Q20.68 6.94 21 6.90ZM27.20 6.90L27.20 6.90Q27.45 6.87 27.50 6.78Q27.54 6.69 27.48 6.43L27.48 6.43Q27.41 6.15 27.29 5.85Q27.17 5.56 27.01 5.31L27.01 5.31Q26.92 5.17 26.80 5.10Q26.68 5.04 26.45 5.04L26.45 5.04Q25.97 5.07 25.36 5.12Q24.75 5.18 24.12 5.26Q23.49 5.35 22.88 5.46Q22.27 5.57 21.80 5.70L21.80 5.70Q21.64 5.75 21.59 5.84Q21.53 5.92 21.62 6.17L21.62 6.17Q21.70 6.41 21.83 6.78Q21.97 7.14 22.13 7.38L22.13 7.38Q22.29 7.62 22.42 7.67Q22.55 7.71 22.76 7.64L22.76 7.64Q22.92 7.59 23.15 7.55Q23.38 7.50 23.62 7.45L23.62 7.45Q23.48 8.25 23.33 9.23Q23.18 10.21 23.06 11.19Q22.93 12.17 22.83 13.08Q22.74 13.99 22.69 14.63L22.69 14.63Q22.61 15.16 22.83 15.41Q23.06 15.67 23.45 15.83L23.45 15.83Q23.65 15.92 23.81 15.99Q23.97 16.06 24.09 16.07Q24.21 16.09 24.28 16.02Q24.35 15.95 24.36 15.75L24.36 15.75Q24.49 14.76 24.65 13.65Q24.81 12.54 24.99 11.42Q25.17 10.29 25.35 9.19Q25.54 8.09 25.70 7.10L25.70 7.10Q26.11 7.04 26.50 6.99Q26.88 6.94 27.20 6.90ZM29.97 5.88L29.97 5.88Q29.75 5.68 29.46 5.51Q29.16 5.33 28.91 5.25L28.91 5.25Q28.66 5.15 28.53 5.22Q28.41 5.29 28.34 5.60L28.34 5.60Q28.24 6.12 28.12 6.86Q28 7.60 27.88 8.44Q27.76 9.28 27.65 10.18Q27.54 11.07 27.44 11.90Q27.34 12.73 27.27 13.43Q27.20 14.14 27.17 14.62L27.17 14.62Q27.15 14.98 27.21 15.18Q27.27 15.39 27.48 15.54L27.48 15.54Q27.68 15.69 27.90 15.79Q28.13 15.89 28.36 15.99L28.36 15.99Q28.60 16.07 28.69 16.00Q28.77 15.93 28.81 15.69L28.81 15.69Q28.90 15.08 29.00 14.32Q29.11 13.55 29.23 12.73Q29.36 11.90 29.49 11.05Q29.62 10.19 29.76 9.40Q29.89 8.61 30.02 7.91Q30.14 7.21 30.25 6.69L30.25 6.69Q30.31 6.40 30.26 6.24Q30.21 6.08 29.97 5.88ZM31.28 5.84L31.28 5.84L30.21 13.93Q30.18 14.29 30.26 14.56Q30.34 14.83 30.49 15.02L30.49 15.02Q30.67 15.27 30.81 15.44Q30.95 15.60 31.11 15.75L31.11 15.75Q31.25 15.89 31.44 15.97Q31.63 16.04 32.00 15.90L32.00 15.90Q32.56 15.75 33.18 15.57Q33.80 15.39 34.38 15.22L34.38 15.22Q34.62 15.15 34.67 15.04Q34.72 14.94 34.66 14.66L34.66 14.66Q34.59 14.41 34.52 14.17Q34.45 13.93 34.34 13.66L34.34 13.66Q34.24 13.43 34.10 13.34Q33.95 13.26 33.71 13.29L33.71 13.29Q33.26 13.33 32.87 13.39Q32.48 13.45 32.06 13.57L32.06 13.57Q32.13 13.20 32.20 12.82Q32.27 12.43 32.34 12.03L32.34 12.03Q32.86 11.87 33.41 11.74Q33.96 11.61 34.50 11.47L34.50 11.47Q34.73 11.40 34.79 11.30Q34.85 11.20 34.78 10.91L34.78 10.91Q34.72 10.65 34.66 10.42Q34.59 10.18 34.48 9.93L34.48 9.93Q34.38 9.69 34.24 9.61Q34.10 9.53 33.87 9.55L33.87 9.55Q33.59 9.56 33.33 9.58Q33.07 9.60 32.80 9.66L32.80 9.66Q32.94 9.03 33.05 8.46Q33.17 7.88 33.28 7.36L33.28 7.36Q33.87 7.25 34.41 7.17Q34.94 7.08 35.43 7.01L35.43 7.01Q35.67 6.97 35.73 6.87Q35.80 6.76 35.76 6.47L35.76 6.47Q35.70 6.22 35.65 6.01Q35.60 5.80 35.49 5.53L35.49 5.53Q35.35 5.03 34.89 5.05L34.89 5.05Q33.91 5.11 32.95 5.35Q31.99 5.59 31.28 5.84Z"></path></g><!----><!----></svg>